<svg width="970" height="71" viewBox="0 0 970 71" fill="none" xmlns="http://www.w3.org/2000/svg">
<g filter="url(#filter0_d_4_11)">
<mask id="path-1-outside-1_4_11" maskUnits="userSpaceOnUse" x="3.29401" y="2.332" width="952" height="53" fill="black">
<rect fill="white" x="3.29401" y="2.332" width="952" height="53"/>
<path d="M83.526 49.852H33.734L43.718 38.844H54.406C57.03 38.844 59.974 38.844 62.022 38.972C61.126 37.436 59.782 34.812 58.758 32.764L53.062 21.436L27.974 49.852H12.294L46.598 11.132C48.838 8.636 51.846 6.332 56.006 6.332C59.974 6.332 62.214 8.444 63.622 11.132L83.526 49.852Z"/>
<path d="M109.239 7.036L101.687 49.852H88.439L96.055 7.036H109.239Z"/>
<path d="M117.871 24.06H139.247L131.311 32.316H109.935L117.871 24.06Z"/>
<path d="M198.246 25.212C198.246 38.972 184.678 49.852 168.294 49.852H139.622L144.358 23.164H157.606L154.854 38.844H170.214C178.342 38.844 184.806 34.108 184.806 27.26C184.806 22.012 180.326 18.172 173.862 18.172H145.19L155.622 7.036H175.846C189.35 7.036 198.246 14.46 198.246 25.212Z"/>
<path d="M198.848 7.036H215.04L229.312 35.452L254.4 7.036H270.079L235.776 45.756C233.536 48.252 230.528 50.556 226.368 50.556C222.4 50.556 220.16 48.444 218.752 45.756L198.848 7.036Z"/>
<path d="M318.589 49.852H268.797L278.781 38.844H289.469C292.093 38.844 295.037 38.844 297.085 38.972C296.189 37.436 294.844 34.812 293.82 32.764L288.125 21.436L263.037 49.852H247.357L281.661 11.132C283.901 8.636 286.909 6.332 291.069 6.332C295.037 6.332 297.277 8.444 298.685 11.132L318.589 49.852Z"/>
<path d="M366.574 50.556C364.782 50.556 363.438 50.172 361.646 48.252L339.566 24.7L335.15 49.852H323.117L329.326 14.332C330.286 8.636 334.062 6.332 338.03 6.332C339.63 6.332 341.23 6.716 342.958 8.636L365.038 32.188L369.518 7.036H381.549L375.214 42.492C374.19 48.188 370.414 50.556 366.574 50.556Z"/>
<path d="M408.178 38.844H438.194L427.762 49.852H406.258C392.882 49.852 383.986 41.788 383.986 30.972C383.986 16.892 397.426 7.036 413.81 7.036H443.826L433.329 18.172H411.826C403.954 18.172 397.298 23.228 397.298 30.012C397.298 35.324 401.714 38.844 408.178 38.844Z"/>
<path d="M456.104 38.844H492.584L482.088 49.852H440.872L448.488 7.036H498.024L487.464 18.172H459.752L458.856 23.292H492.712L483.496 33.02H457.128L456.104 38.844Z"/>
<path d="M553.746 25.212C553.746 38.972 540.178 49.852 523.794 49.852H495.122L499.858 23.164H513.106L510.354 38.844H525.714C533.842 38.844 540.306 34.108 540.306 27.26C540.306 22.012 535.826 18.172 529.362 18.172H500.69L511.122 7.036H531.346C544.85 7.036 553.746 14.46 553.746 25.212Z"/>
<path d="M601.737 24.124H625.034C634.314 24.124 639.242 27.452 639.242 33.852C639.242 43.132 633.417 49.852 618.185 49.852H578.313L588.745 38.844H621.193C624.777 38.844 626.314 37.692 626.314 35.196C626.314 33.468 624.969 32.636 622.281 32.636H598.922C589.194 32.636 584.841 28.54 584.841 22.332C584.841 13.628 590.794 7.036 605.77 7.036H642.953L632.458 18.172H602.762C599.178 18.172 597.641 19.132 597.641 21.692C597.641 23.42 598.985 24.124 601.737 24.124Z"/>
<path d="M657.667 38.844H694.146L683.651 49.852H642.435L650.051 7.036H699.586L689.026 18.172H661.315L660.419 23.292H694.275L685.059 33.02H658.69L657.667 38.844Z"/>
<path d="M762.401 49.852H712.609L722.593 38.844H733.281C735.905 38.844 738.849 38.844 740.897 38.972C740.001 37.436 738.657 34.812 737.633 32.764L731.937 21.436L706.849 49.852H691.169L725.473 11.132C727.713 8.636 730.721 6.332 734.881 6.332C738.849 6.332 741.089 8.444 742.497 11.132L762.401 49.852Z"/>
<path d="M821.394 41.532L827.858 49.852H810.13L802.578 38.524H782.226L780.242 49.852H766.994L770.834 27.964H808.082C812.498 27.964 816.338 25.852 816.338 22.396C816.338 19.58 813.906 18.172 809.81 18.172H772.562L783.186 7.036H810.706C819.666 7.036 830.29 9.788 830.29 20.028C830.29 27.772 824.722 34.3 816.466 35.9C817.682 36.988 819.026 38.524 821.394 41.532Z"/>
<path d="M857.427 38.844H887.443L877.012 49.852H855.508C842.132 49.852 833.236 41.788 833.236 30.972C833.236 16.892 846.676 7.036 863.06 7.036H893.076L882.58 18.172H861.076C853.204 18.172 846.547 23.228 846.547 30.012C846.547 35.324 850.963 38.844 857.427 38.844Z"/>
<path d="M949.706 7.036L942.09 49.852H928.906L931.85 33.34H906.314L903.434 49.852H890.122L897.738 7.036H910.986L908.234 22.204H933.77L936.458 7.036H949.706Z"/>
</mask>
<path d="M83.526 49.852H33.734L43.718 38.844H54.406C57.03 38.844 59.974 38.844 62.022 38.972C61.126 37.436 59.782 34.812 58.758 32.764L53.062 21.436L27.974 49.852H12.294L46.598 11.132C48.838 8.636 51.846 6.332 56.006 6.332C59.974 6.332 62.214 8.444 63.622 11.132L83.526 49.852Z" fill="#075176"/>
<path d="M109.239 7.036L101.687 49.852H88.439L96.055 7.036H109.239Z" fill="#075176"/>
<path d="M117.871 24.06H139.247L131.311 32.316H109.935L117.871 24.06Z" fill="#075176"/>
<path d="M198.246 25.212C198.246 38.972 184.678 49.852 168.294 49.852H139.622L144.358 23.164H157.606L154.854 38.844H170.214C178.342 38.844 184.806 34.108 184.806 27.26C184.806 22.012 180.326 18.172 173.862 18.172H145.19L155.622 7.036H175.846C189.35 7.036 198.246 14.46 198.246 25.212Z" fill="#075176"/>
<path d="M198.848 7.036H215.04L229.312 35.452L254.4 7.036H270.079L235.776 45.756C233.536 48.252 230.528 50.556 226.368 50.556C222.4 50.556 220.16 48.444 218.752 45.756L198.848 7.036Z" fill="#075176"/>
<path d="M318.589 49.852H268.797L278.781 38.844H289.469C292.093 38.844 295.037 38.844 297.085 38.972C296.189 37.436 294.844 34.812 293.82 32.764L288.125 21.436L263.037 49.852H247.357L281.661 11.132C283.901 8.636 286.909 6.332 291.069 6.332C295.037 6.332 297.277 8.444 298.685 11.132L318.589 49.852Z" fill="#075176"/>
<path d="M366.574 50.556C364.782 50.556 363.438 50.172 361.646 48.252L339.566 24.7L335.15 49.852H323.117L329.326 14.332C330.286 8.636 334.062 6.332 338.03 6.332C339.63 6.332 341.23 6.716 342.958 8.636L365.038 32.188L369.518 7.036H381.549L375.214 42.492C374.19 48.188 370.414 50.556 366.574 50.556Z" fill="#075176"/>
<path d="M408.178 38.844H438.194L427.762 49.852H406.258C392.882 49.852 383.986 41.788 383.986 30.972C383.986 16.892 397.426 7.036 413.81 7.036H443.826L433.329 18.172H411.826C403.954 18.172 397.298 23.228 397.298 30.012C397.298 35.324 401.714 38.844 408.178 38.844Z" fill="#075176"/>
<path d="M456.104 38.844H492.584L482.088 49.852H440.872L448.488 7.036H498.024L487.464 18.172H459.752L458.856 23.292H492.712L483.496 33.02H457.128L456.104 38.844Z" fill="#075176"/>
<path d="M553.746 25.212C553.746 38.972 540.178 49.852 523.794 49.852H495.122L499.858 23.164H513.106L510.354 38.844H525.714C533.842 38.844 540.306 34.108 540.306 27.26C540.306 22.012 535.826 18.172 529.362 18.172H500.69L511.122 7.036H531.346C544.85 7.036 553.746 14.46 553.746 25.212Z" fill="#075176"/>
<path d="M601.737 24.124H625.034C634.314 24.124 639.242 27.452 639.242 33.852C639.242 43.132 633.417 49.852 618.185 49.852H578.313L588.745 38.844H621.193C624.777 38.844 626.314 37.692 626.314 35.196C626.314 33.468 624.969 32.636 622.281 32.636H598.922C589.194 32.636 584.841 28.54 584.841 22.332C584.841 13.628 590.794 7.036 605.77 7.036H642.953L632.458 18.172H602.762C599.178 18.172 597.641 19.132 597.641 21.692C597.641 23.42 598.985 24.124 601.737 24.124Z" fill="#075176"/>
<path d="M657.667 38.844H694.146L683.651 49.852H642.435L650.051 7.036H699.586L689.026 18.172H661.315L660.419 23.292H694.275L685.059 33.02H658.69L657.667 38.844Z" fill="#075176"/>
<path d="M762.401 49.852H712.609L722.593 38.844H733.281C735.905 38.844 738.849 38.844 740.897 38.972C740.001 37.436 738.657 34.812 737.633 32.764L731.937 21.436L706.849 49.852H691.169L725.473 11.132C727.713 8.636 730.721 6.332 734.881 6.332C738.849 6.332 741.089 8.444 742.497 11.132L762.401 49.852Z" fill="#075176"/>
<path d="M821.394 41.532L827.858 49.852H810.13L802.578 38.524H782.226L780.242 49.852H766.994L770.834 27.964H808.082C812.498 27.964 816.338 25.852 816.338 22.396C816.338 19.58 813.906 18.172 809.81 18.172H772.562L783.186 7.036H810.706C819.666 7.036 830.29 9.788 830.29 20.028C830.29 27.772 824.722 34.3 816.466 35.9C817.682 36.988 819.026 38.524 821.394 41.532Z" fill="#075176"/>
<path d="M857.427 38.844H887.443L877.012 49.852H855.508C842.132 49.852 833.236 41.788 833.236 30.972C833.236 16.892 846.676 7.036 863.06 7.036H893.076L882.58 18.172H861.076C853.204 18.172 846.547 23.228 846.547 30.012C846.547 35.324 850.963 38.844 857.427 38.844Z" fill="#075176"/>
<path d="M949.706 7.036L942.09 49.852H928.906L931.85 33.34H906.314L903.434 49.852H890.122L897.738 7.036H910.986L908.234 22.204H933.77L936.458 7.036H949.706Z" fill="#075176"/>
<path d="M83.526 49.852H33.734L43.718 38.844H54.406C57.03 38.844 59.974 38.844 62.022 38.972C61.126 37.436 59.782 34.812 58.758 32.764L53.062 21.436L27.974 49.852H12.294L46.598 11.132C48.838 8.636 51.846 6.332 56.006 6.332C59.974 6.332 62.214 8.444 63.622 11.132L83.526 49.852Z" stroke="#DFA3F3" stroke-width="8" mask="url(#path-1-outside-1_4_11)"/>
<path d="M109.239 7.036L101.687 49.852H88.439L96.055 7.036H109.239Z" stroke="#DFA3F3" stroke-width="8" mask="url(#path-1-outside-1_4_11)"/>
<path d="M117.871 24.06H139.247L131.311 32.316H109.935L117.871 24.06Z" stroke="#DFA3F3" stroke-width="8" mask="url(#path-1-outside-1_4_11)"/>
<path d="M198.246 25.212C198.246 38.972 184.678 49.852 168.294 49.852H139.622L144.358 23.164H157.606L154.854 38.844H170.214C178.342 38.844 184.806 34.108 184.806 27.26C184.806 22.012 180.326 18.172 173.862 18.172H145.19L155.622 7.036H175.846C189.35 7.036 198.246 14.46 198.246 25.212Z" stroke="#DFA3F3" stroke-width="8" mask="url(#path-1-outside-1_4_11)"/>
<path d="M198.848 7.036H215.04L229.312 35.452L254.4 7.036H270.079L235.776 45.756C233.536 48.252 230.528 50.556 226.368 50.556C222.4 50.556 220.16 48.444 218.752 45.756L198.848 7.036Z" stroke="#DFA3F3" stroke-width="8" mask="url(#path-1-outside-1_4_11)"/>
<path d="M318.589 49.852H268.797L278.781 38.844H289.469C292.093 38.844 295.037 38.844 297.085 38.972C296.189 37.436 294.844 34.812 293.82 32.764L288.125 21.436L263.037 49.852H247.357L281.661 11.132C283.901 8.636 286.909 6.332 291.069 6.332C295.037 6.332 297.277 8.444 298.685 11.132L318.589 49.852Z" stroke="#DFA3F3" stroke-width="8" mask="url(#path-1-outside-1_4_11)"/>
<path d="M366.574 50.556C364.782 50.556 363.438 50.172 361.646 48.252L339.566 24.7L335.15 49.852H323.117L329.326 14.332C330.286 8.636 334.062 6.332 338.03 6.332C339.63 6.332 341.23 6.716 342.958 8.636L365.038 32.188L369.518 7.036H381.549L375.214 42.492C374.19 48.188 370.414 50.556 366.574 50.556Z" stroke="#DFA3F3" stroke-width="8" mask="url(#path-1-outside-1_4_11)"/>
<path d="M408.178 38.844H438.194L427.762 49.852H406.258C392.882 49.852 383.986 41.788 383.986 30.972C383.986 16.892 397.426 7.036 413.81 7.036H443.826L433.329 18.172H411.826C403.954 18.172 397.298 23.228 397.298 30.012C397.298 35.324 401.714 38.844 408.178 38.844Z" stroke="#DFA3F3" stroke-width="8" mask="url(#path-1-outside-1_4_11)"/>
<path d="M456.104 38.844H492.584L482.088 49.852H440.872L448.488 7.036H498.024L487.464 18.172H459.752L458.856 23.292H492.712L483.496 33.02H457.128L456.104 38.844Z" stroke="#DFA3F3" stroke-width="8" mask="url(#path-1-outside-1_4_11)"/>
<path d="M553.746 25.212C553.746 38.972 540.178 49.852 523.794 49.852H495.122L499.858 23.164H513.106L510.354 38.844H525.714C533.842 38.844 540.306 34.108 540.306 27.26C540.306 22.012 535.826 18.172 529.362 18.172H500.69L511.122 7.036H531.346C544.85 7.036 553.746 14.46 553.746 25.212Z" stroke="#DFA3F3" stroke-width="8" mask="url(#path-1-outside-1_4_11)"/>
<path d="M601.737 24.124H625.034C634.314 24.124 639.242 27.452 639.242 33.852C639.242 43.132 633.417 49.852 618.185 49.852H578.313L588.745 38.844H621.193C624.777 38.844 626.314 37.692 626.314 35.196C626.314 33.468 624.969 32.636 622.281 32.636H598.922C589.194 32.636 584.841 28.54 584.841 22.332C584.841 13.628 590.794 7.036 605.77 7.036H642.953L632.458 18.172H602.762C599.178 18.172 597.641 19.132 597.641 21.692C597.641 23.42 598.985 24.124 601.737 24.124Z" stroke="#DFA3F3" stroke-width="8" mask="url(#path-1-outside-1_4_11)"/>
<path d="M657.667 38.844H694.146L683.651 49.852H642.435L650.051 7.036H699.586L689.026 18.172H661.315L660.419 23.292H694.275L685.059 33.02H658.69L657.667 38.844Z" stroke="#DFA3F3" stroke-width="8" mask="url(#path-1-outside-1_4_11)"/>
<path d="M762.401 49.852H712.609L722.593 38.844H733.281C735.905 38.844 738.849 38.844 740.897 38.972C740.001 37.436 738.657 34.812 737.633 32.764L731.937 21.436L706.849 49.852H691.169L725.473 11.132C727.713 8.636 730.721 6.332 734.881 6.332C738.849 6.332 741.089 8.444 742.497 11.132L762.401 49.852Z" stroke="#DFA3F3" stroke-width="8" mask="url(#path-1-outside-1_4_11)"/>
<path d="M821.394 41.532L827.858 49.852H810.13L802.578 38.524H782.226L780.242 49.852H766.994L770.834 27.964H808.082C812.498 27.964 816.338 25.852 816.338 22.396C816.338 19.58 813.906 18.172 809.81 18.172H772.562L783.186 7.036H810.706C819.666 7.036 830.29 9.788 830.29 20.028C830.29 27.772 824.722 34.3 816.466 35.9C817.682 36.988 819.026 38.524 821.394 41.532Z" stroke="#DFA3F3" stroke-width="8" mask="url(#path-1-outside-1_4_11)"/>
<path d="M857.427 38.844H887.443L877.012 49.852H855.508C842.132 49.852 833.236 41.788 833.236 30.972C833.236 16.892 846.676 7.036 863.06 7.036H893.076L882.58 18.172H861.076C853.204 18.172 846.547 23.228 846.547 30.012C846.547 35.324 850.963 38.844 857.427 38.844Z" stroke="#DFA3F3" stroke-width="8" mask="url(#path-1-outside-1_4_11)"/>
<path d="M949.706 7.036L942.09 49.852H928.906L931.85 33.34H906.314L903.434 49.852H890.122L897.738 7.036H910.986L908.234 22.204H933.77L936.458 7.036H949.706Z" stroke="#DFA3F3" stroke-width="8" mask="url(#path-1-outside-1_4_11)"/>
</g>
<defs>
<filter id="filter0_d_4_11" x="0.506189" y="0.432001" width="968.874" height="70.024" filterUnits="userSpaceOnUse" color-interpolation-filters="sRGB">
<feFlood flood-opacity="0" result="BackgroundImageFix"/>
<feColorMatrix in="SourceAlpha" type="matrix" values="0 0 0 0 0 0 0 0 0 0 0 0 0 0 0 0 0 0 127 0" result="hardAlpha"/>
<feOffset dx="6" dy="7"/>
<feGaussianBlur stdDeviation="4.45"/>
<feComposite in2="hardAlpha" operator="out"/>
<feColorMatrix type="matrix" values="0 0 0 0 0.940939 0 0 0 0 0.429329 0 0 0 0 0.898305 0 0 0 0.39 0"/>
<feBlend mode="normal" in2="BackgroundImageFix" result="effect1_dropShadow_4_11"/>
<feBlend mode="normal" in="SourceGraphic" in2="effect1_dropShadow_4_11" result="shape"/>
</filter>
</defs>
</svg>
