<svg width="21" height="21" viewBox="0 0 21 21" fill="none" xmlns="http://www.w3.org/2000/svg">
<path fill-rule="evenodd" clip-rule="evenodd" d="M5.66363 4.02567C5.37074 3.73278 4.89586 3.73278 4.60297 4.02567C4.31008 4.31856 4.31008 4.79344 4.60297 5.08633L9.57264 10.056L4.60297 15.0257C4.31008 15.3186 4.31008 15.7934 4.60297 16.0863C4.89586 16.3792 5.37074 16.3792 5.66363 16.0863L10.6333 11.1167L15.603 16.0863C15.8959 16.3792 16.3707 16.3792 16.6636 16.0863C16.9565 15.7934 16.9565 15.3186 16.6636 15.0257L11.694 10.056L16.6636 5.08633C16.9565 4.79344 16.9565 4.31856 16.6636 4.02567C16.3707 3.73278 15.8959 3.73278 15.603 4.02567L10.6333 8.99534L5.66363 4.02567Z" fill="#698796"/>
</svg>
