<svg width="79" height="47" viewBox="0 0 79 47" fill="none" xmlns="http://www.w3.org/2000/svg">
<rect x="0.633301" width="78.3668" height="46.112" rx="12" fill="#DFA3F3"/>
<path d="M18.2973 25.152L23.1293 20.384H36.8253L34.4573 33.76H19.7693C13.0813 33.76 8.6333 29.728 8.6333 24.32C8.6333 17.28 15.3533 12.352 23.5453 12.352H38.8733L33.5933 17.92H22.5533C18.6173 17.92 15.2573 20.448 15.2573 23.872C15.2573 26.528 17.4333 28.256 20.7293 28.256H28.8573L29.4013 25.152H18.2973Z" fill="#075176"/>
<path d="M57.0801 12C66.3281 12 71.0001 14.848 71.0001 21.056C71.0001 29.856 65.1761 34.112 53.1761 34.112C43.9281 34.112 39.2561 31.232 39.2561 25.024C39.2561 16.224 45.0801 12 57.0801 12ZM54.1361 28.544C62.7441 28.544 64.3441 27.2 64.3441 21.728C64.3441 18.272 61.9121 17.568 56.0881 17.568C47.4801 17.568 45.9121 18.88 45.9121 24.384C45.9121 27.84 48.3761 28.544 54.1361 28.544Z" fill="#075176"/>
</svg>
