<svg width="33" height="33" viewBox="0 0 33 33" fill="none" xmlns="http://www.w3.org/2000/svg">
<path fill-rule="evenodd" clip-rule="evenodd" d="M22.3453 14.8877C22.3453 19.1821 18.864 22.6634 14.5696 22.6634C10.2753 22.6634 6.79401 19.1821 6.79401 14.8877C6.79401 10.5933 10.2753 7.11206 14.5696 7.11206C18.864 7.11206 22.3453 10.5933 22.3453 14.8877ZM20.5768 21.9556C18.9584 23.3325 16.8611 24.1634 14.5696 24.1634C9.44685 24.1634 5.29401 20.0106 5.29401 14.8877C5.29401 9.76492 9.44685 5.61206 14.5696 5.61206C19.6924 5.61206 23.8453 9.76492 23.8453 14.8877C23.8453 17.1792 23.0144 19.2765 21.6375 20.895L27.4675 26.725L26.4068 27.7856L20.5768 21.9556Z" fill="#698796"/>
</svg>
